<svg width="167" height="53" fill="none" xmlns="http://www.w3.org/2000/svg"><g clip-path="url(#clip0_2_524)"><path d="M87.701 13.1a3.38 3.38 0 11-6.758 0c0-1.878 1.456-3.392 3.38-3.392 1.923.052 3.378 1.566 3.378 3.393zM73.77 19.939v.835s-1.612-2.088-5.043-2.088c-5.666 0-10.085 4.332-10.085 10.335 0 5.95 4.367 10.334 10.085 10.334 3.483 0 5.043-2.14 5.043-2.14v.887c0 .418.312.731.728.731h4.21V19.207h-4.21c-.416 0-.728.366-.728.731zm0 12.579c-.78 1.148-2.34 2.14-4.21 2.14-3.328 0-5.875-2.088-5.875-5.637 0-3.55 2.547-5.637 5.874-5.637 1.82 0 3.483 1.044 4.211 2.14v6.994zm8.058-13.31h4.99v19.625h-4.99V19.207zm74.549-.522c-3.431 0-5.043 2.088-5.043 2.088V9.76h-4.991v29.072h4.211c.416 0 .728-.365.728-.73v-.888s1.612 2.14 5.043 2.14c5.666 0 10.085-4.384 10.085-10.334 0-5.95-4.419-10.335-10.033-10.335zm-.832 15.92c-1.924 0-3.431-.992-4.211-2.14V25.47c.78-1.043 2.443-2.14 4.211-2.14 3.327 0 5.874 2.088 5.874 5.638 0 3.549-2.547 5.636-5.874 5.636zm-11.801-7.412v11.691h-4.991V27.767c0-3.236-1.04-4.54-3.847-4.54-1.507 0-3.067.782-4.055 1.93v13.675h-4.99V19.207h3.951c.415 0 .727.366.727.731v.835c1.456-1.514 3.379-2.088 5.303-2.088 2.183 0 4.003.627 5.459 1.88 1.767 1.46 2.443 3.34 2.443 6.628zm-29.996-8.508c-3.431 0-5.043 2.088-5.043 2.088V9.76h-4.991v29.072h4.211c.416 0 .728-.365.728-.73v-.888s1.612 2.14 5.043 2.14c5.666 0 10.085-4.384 10.085-10.334.052-5.95-4.367-10.335-10.033-10.335zm-.832 15.92c-1.924 0-3.431-.992-4.211-2.14V25.47c.78-1.043 2.443-2.14 4.211-2.14 3.327 0 5.874 2.088 5.874 5.638 0 3.549-2.547 5.636-5.874 5.636zm-13.517-15.92c1.508 0 2.288.261 2.288.261v4.645s-4.16-1.409-6.758 1.566v13.727h-4.991V19.207h4.21c.417 0 .729.366.729.731v.835c.935-1.096 2.963-2.088 4.522-2.088zm-51.83 18.372c-.26-.626-.52-1.304-.78-1.879-.416-.939-.832-1.826-1.196-2.661l-.052-.053a545.768 545.768 0 00-11.49-23.592l-.156-.313c-.416-.783-.832-1.618-1.247-2.453-.52-.94-1.04-1.931-1.872-2.871C29.113 1.148 26.721 0 24.174 0c-2.6 0-4.939 1.148-6.654 3.132-.78.94-1.352 1.93-1.872 2.87A106.7 106.7 0 0114.4 8.455l-.156.314C10.241 16.598 6.342 24.53 2.755 32.36l-.052.105c-.364.835-.78 1.722-1.195 2.661-.26.575-.52 1.2-.78 1.88-.676 1.93-.884 3.757-.624 5.636.572 3.915 3.171 7.203 6.758 8.664 1.352.575 2.756.836 4.211.836.416 0 .936-.053 1.352-.105 1.715-.209 3.483-.783 5.198-1.774 2.132-1.2 4.16-2.923 6.447-5.429 2.287 2.506 4.367 4.228 6.446 5.428 1.716.992 3.483 1.566 5.199 1.775.416.052.936.105 1.351.105 1.456 0 2.912-.262 4.211-.836 3.64-1.461 6.187-4.801 6.759-8.664.416-1.827.208-3.653-.468-5.585zm-23.446 2.715c-2.807-3.55-4.627-6.89-5.25-9.708-.26-1.2-.313-2.245-.157-3.184a5.076 5.076 0 01.832-2.192c.988-1.41 2.651-2.297 4.575-2.297 1.923 0 3.639.835 4.575 2.297.416.626.727 1.357.831 2.192.156.94.104 2.035-.155 3.184-.624 2.766-2.444 6.106-5.251 9.708zm20.742 2.453a7.751 7.751 0 01-4.73 6.106c-1.248.522-2.6.679-3.951.522-1.3-.156-2.6-.574-3.951-1.357-1.872-1.044-3.743-2.662-5.927-5.063 3.431-4.227 5.51-8.09 6.29-11.534.364-1.618.416-3.08.26-4.437-.207-1.305-.675-2.505-1.403-3.549-1.612-2.349-4.315-3.706-7.33-3.706-3.015 0-5.719 1.41-7.33 3.706-.728 1.044-1.196 2.244-1.404 3.55a10.878 10.878 0 00.26 4.436c.78 3.444 2.911 7.359 6.29 11.587-2.131 2.4-4.055 4.019-5.926 5.063-1.352.782-2.651 1.2-3.951 1.357a8.284 8.284 0 01-3.951-.523 7.75 7.75 0 01-4.73-6.106c-.157-1.305-.053-2.61.467-4.071.156-.522.416-1.044.676-1.67.364-.836.78-1.723 1.196-2.61l.052-.105c3.587-7.776 7.434-15.71 11.437-23.434l.156-.314c.415-.783.831-1.618 1.247-2.4.416-.836.884-1.619 1.456-2.297 1.092-1.253 2.547-1.931 4.159-1.931 1.611 0 3.067.678 4.159 1.93.572.68 1.04 1.462 1.455 2.297.416.783.832 1.618 1.248 2.401l.156.313A693.542 693.542 0 0142.63 33.875v.052c.416.835.78 1.774 1.196 2.61.26.626.52 1.148.676 1.67.416 1.357.571 2.662.364 4.019z" fill="#FF5A5F"/></g><defs><clipPath id="clip0_2_524"><path fill="#fff" d="M0 0h166.409v52.142H0z"/></clipPath></defs></svg>