<svg width="142" height="43" fill="none" xmlns="http://www.w3.org/2000/svg"><g clip-path="url(#clip0_2_534)" fill-rule="evenodd" clip-rule="evenodd"><path d="M87.813 33.319c-8.226 6.055-20.148 9.286-30.413 9.286-14.393 0-27.35-5.317-37.154-14.16-.77-.696-.08-1.643.845-1.102 10.579 6.148 23.66 9.847 37.171 9.847 9.113 0 19.138-1.883 28.355-5.791 1.393-.591 2.557.91 1.196 1.92z" fill="#F90"/><path d="M91.232 29.41c-1.047-1.34-6.95-.633-9.6-.32-.806.1-.93-.602-.203-1.107 4.702-3.305 12.416-2.35 13.315-1.243.9 1.114-.234 8.837-4.652 12.524-.677.566-1.324.264-1.022-.486.992-2.474 3.216-8.02 2.162-9.367z" fill="#F90"/><path d="M81.818 4.653V1.44c0-.486.37-.812.813-.812h14.4c.461 0 .83.332.83.812v2.751c-.005.462-.393 1.065-1.084 2.019l-7.461 10.64c2.773-.067 5.7.345 8.213 1.76.567.32.721.788.764 1.25v3.428c0 .467-.517 1.015-1.06.732-4.43-2.32-10.314-2.573-15.212.024-.5.271-1.023-.27-1.023-.738V20.05c0-.523.006-1.415.53-2.209L90.172 5.46H82.65c-.462 0-.831-.326-.831-.806zM29.291 24.697h-4.38c-.42-.031-.752-.345-.783-.745V1.496c0-.45.376-.807.844-.807h4.085a.825.825 0 01.795.751v2.936h.08C30.998 1.539 33.001.216 35.7.216c2.742 0 4.455 1.323 5.687 4.16 1.06-2.837 3.47-4.16 6.05-4.16 1.837 0 3.846.756 5.072 2.455 1.386 1.89 1.102 4.634 1.102 7.04l-.006 14.173c0 .45-.376.813-.844.813h-4.374c-.438-.031-.789-.382-.789-.813V11.982c0-.947.086-3.31-.123-4.21-.327-1.507-1.306-1.932-2.576-1.932-1.06 0-2.169.708-2.618 1.84-.45 1.133-.407 3.028-.407 4.302v11.902c0 .45-.376.813-.844.813h-4.375c-.443-.031-.788-.382-.788-.813l-.007-11.902c0-2.504.413-6.19-2.698-6.19-3.149 0-3.026 3.593-3.026 6.19v11.902c0 .45-.375.813-.844.813M110.259.215c6.5 0 10.018 5.576 10.018 12.666 0 6.85-3.888 12.284-10.018 12.284-6.384 0-9.859-5.576-9.859-12.524 0-6.991 3.519-12.426 9.859-12.426zm.037 4.585c-3.229 0-3.432 4.394-3.432 7.133 0 2.745-.043 8.604 3.395 8.604 3.395 0 3.555-4.727 3.555-7.607 0-1.896-.08-4.16-.653-5.957-.493-1.563-1.473-2.173-2.865-2.173zm18.41 19.897h-4.362c-.438-.031-.789-.382-.789-.813l-.006-22.462c.037-.413.4-.733.844-.733h4.06a.838.838 0 01.783.628v3.434h.08c1.226-3.07 2.945-4.536 5.97-4.536 1.966 0 3.882.708 5.114 2.647 1.146 1.797 1.146 4.818 1.146 6.99V23.99c-.049.394-.412.708-.844.708h-4.393c-.4-.031-.733-.326-.776-.708V11.791c0-2.455.283-6.05-2.742-6.05-1.066 0-2.046.715-2.532 1.798-.616 1.372-.697 2.739-.697 4.252v12.093c-.006.45-.388.813-.856.813M70.339 13.97c0 1.705.043 3.126-.82 4.64-.696 1.231-1.805 1.988-3.031 1.988-1.682 0-2.668-1.28-2.668-3.17 0-3.729 3.346-4.406 6.519-4.406v.948zm4.418 10.665c-.29.259-.709.277-1.035.105-1.455-1.206-1.72-1.766-2.514-2.917-2.403 2.45-4.11 3.181-7.222 3.181-3.69 0-6.555-2.27-6.555-6.818 0-3.551 1.922-5.97 4.67-7.152 2.378-1.046 5.7-1.23 8.238-1.52v-.566c0-1.04.08-2.27-.536-3.17-.53-.805-1.553-1.138-2.459-1.138-1.67 0-3.154.856-3.518 2.628-.074.394-.363.782-.764.8l-4.245-.455c-.357-.08-.758-.37-.653-.917C59.137 1.55 63.795 0 67.96 0c2.132 0 4.917.566 6.6 2.179 2.131 1.987 1.928 4.64 1.928 7.526v6.819c0 2.05.85 2.948 1.651 4.056.278.394.34.867-.018 1.163a185.99 185.99 0 00-3.358 2.905l-.006-.013M12.908 13.97c0 1.705.043 3.126-.82 4.64-.695 1.231-1.798 1.988-3.03 1.988-1.683 0-2.662-1.28-2.662-3.17 0-3.729 3.345-4.406 6.512-4.406v.948zm4.418 10.665c-.29.259-.709.277-1.035.105-1.454-1.206-1.713-1.766-2.514-2.917-2.403 2.45-4.104 3.181-7.221 3.181C2.87 25.005 0 22.735 0 18.187c0-3.551 1.929-5.97 4.67-7.152 2.379-1.046 5.7-1.23 8.238-1.52v-.566c0-1.04.08-2.27-.53-3.17-.536-.805-1.559-1.138-2.458-1.138-1.67 0-3.16.856-3.524 2.628-.074.394-.364.782-.758.8l-4.252-.455c-.357-.08-.751-.37-.653-.917C1.713 1.55 6.365 0 10.53 0c2.132 0 4.917.566 6.599 2.179 2.132 1.987 1.928 4.64 1.928 7.526v6.819c0 2.05.85 2.948 1.652 4.056.283.394.345.867-.013 1.163a185.64 185.64 0 00-3.358 2.905l-.012-.013" fill="#000"/></g><defs><clipPath id="clip0_2_534"><path fill="#fff" d="M0 0h141.547v42.605H0z"/></clipPath></defs></svg>