<svg width="151" height="50" fill="none" xmlns="http://www.w3.org/2000/svg"><g clip-path="url(#clip0_2_526)"><path d="M145.796 30.177l4.174 2.783c-1.354 1.995-4.595 5.42-10.198 5.42-6.957 0-12.139-5.384-12.139-12.231 0-7.288 5.237-12.231 11.553-12.231 6.354 0 9.466 5.053 10.473 7.781l.549 1.392-16.368 6.774c1.245 2.454 3.186 3.699 5.932 3.699 2.747 0 4.651-1.355 6.024-3.387zm-12.835-4.413l10.931-4.54c-.604-1.52-2.399-2.6-4.541-2.6-2.728 0-6.518 2.416-6.39 7.14z" fill="#FF302F"/><path d="M119.742 1.45h5.273v35.812h-5.273V1.45z" fill="#20B15A"/><path d="M111.429 14.87h5.09v21.752c0 9.026-5.328 12.743-11.626 12.743-5.932 0-9.503-3.992-10.84-7.232l4.67-1.941c.842 1.995 2.874 4.357 6.17 4.357 4.046 0 6.536-2.508 6.536-7.195v-1.758h-.183c-1.208 1.465-3.515 2.783-6.445 2.783-6.115 0-11.718-5.328-11.718-12.194 0-6.902 5.603-12.285 11.718-12.285 2.912 0 5.237 1.3 6.445 2.728h.183V14.87zm.367 11.315c0-4.32-2.875-7.47-6.537-7.47-3.698 0-6.81 3.15-6.81 7.47 0 4.266 3.112 7.36 6.81 7.36 3.662.019 6.537-3.094 6.537-7.36z" fill="#3686F7"/><path d="M64.136 26.094c0 7.049-5.492 12.23-12.23 12.23s-12.23-5.2-12.23-12.23c0-7.086 5.492-12.25 12.23-12.25s12.23 5.164 12.23 12.25zm-5.346 0c0-4.395-3.186-7.416-6.884-7.416-3.699 0-6.884 3.021-6.884 7.416 0 4.357 3.185 7.415 6.884 7.415 3.698 0 6.884-3.058 6.884-7.415z" fill="#FF302F"/><path d="M90.85 26.149c0 7.049-5.493 12.23-12.23 12.23-6.739 0-12.232-5.181-12.232-12.23 0-7.086 5.493-12.231 12.231-12.231 6.738 0 12.23 5.127 12.23 12.23zm-5.365 0c0-4.395-3.186-7.416-6.884-7.416-3.699 0-6.885 3.021-6.885 7.416 0 4.357 3.186 7.415 6.885 7.415 3.717 0 6.884-3.076 6.884-7.415z" fill="#FFBA40"/><path d="M19.572 33.015c-7.672 0-13.677-6.189-13.677-13.86 0-7.672 6.005-13.86 13.677-13.86 4.137 0 7.159 1.629 9.392 3.716l3.68-3.68C29.532 2.347 25.377.076 19.573.076 9.062.076.219 8.645.219 19.155c0 10.509 8.843 19.078 19.353 19.078 5.675 0 9.96-1.868 13.31-5.347 3.443-3.442 4.505-8.275 4.505-12.194 0-1.226-.147-2.49-.312-3.423H19.572v5.09H32.04c-.366 3.185-1.373 5.364-2.856 6.847-1.794 1.813-4.632 3.809-9.612 3.809z" fill="#3686F7"/></g><defs><clipPath id="clip0_2_526"><path fill="#fff" d="M0 0h150.483v49.377H0z"/></clipPath></defs></svg>