<svg width="167" height="28" fill="none" xmlns="http://www.w3.org/2000/svg"><g clip-path="url(#clip0_2_520)"><path d="M77.143 11.167c-2.466 0-4.216 1.946-4.216 4.933v10.957H69.16V7.77h3.72v2.356a5.065 5.065 0 011.905-1.862 5.014 5.014 0 012.578-.63h1.353v3.533h-1.574zM66.56 17.414c0-5.752-4.059-10.053-9.552-10.053a9.776 9.776 0 00-3.776.787 9.842 9.842 0 00-3.186 2.19 9.933 9.933 0 00-2.108 3.254 10 10 0 00-.707 3.822c0 5.747 4.397 10.093 10.134 10.093a9.93 9.93 0 004.625-1.044 10.018 10.018 0 003.628-3.075l-2.733-2.019a6.68 6.68 0 01-2.418 2.087 6.62 6.62 0 01-3.102.719 6.383 6.383 0 01-4.171-1.58 6.48 6.48 0 01-2.143-3.94h15.518l-.009-1.241zm-15.428-1.769c.672-2.941 3.004-4.933 5.831-4.933 2.828 0 5.155 1.992 5.786 4.933H51.131zm-15.83-8.284a9.458 9.458 0 00-3.665.743 9.52 9.52 0 00-3.1 2.108V.568h-3.765v26.49h3.72V24.61a9.634 9.634 0 006.82 2.896 9.922 9.922 0 003.888-.704 9.986 9.986 0 003.314-2.169 10.08 10.08 0 002.222-3.295 10.146 10.146 0 000-7.81 10.08 10.08 0 00-2.221-3.294 9.987 9.987 0 00-3.315-2.17 9.921 9.921 0 00-3.889-.704h-.009zm-.27 16.755a6.586 6.586 0 01-3.692-1.112 6.667 6.667 0 01-2.454-2.995 6.73 6.73 0 01-.386-3.864 6.696 6.696 0 011.812-3.428 6.607 6.607 0 013.398-1.832 6.574 6.574 0 013.834.385 6.636 6.636 0 012.973 2.47 6.718 6.718 0 011.108 3.72 6.677 6.677 0 01-.5 2.543 6.632 6.632 0 01-1.43 2.156 6.572 6.572 0 01-2.14 1.438 6.53 6.53 0 01-2.523.5v.019zm-24.127-.182c3.634 0 6.457-2.81 6.457-7.02V.568h3.901v26.49h-3.856v-2.506a9.577 9.577 0 01-3.175 2.19 9.51 9.51 0 01-3.774.752c-5.606 0-9.921-4.12-9.921-10.367V.568H4.51v16.368c0 4.233 2.705 6.998 6.395 6.998z" fill="#262626"/><path d="M88.084.568h18.431v4.547H93.063v6.456h13.078v4.393H93.063v6.565h13.452v4.547H88.084V.568zm69.333 26.985c5.65 0 8.834-2.728 8.834-6.475 0-2.668-1.885-4.66-5.831-5.524l-4.171-.86c-2.422-.454-3.184-.908-3.184-1.818 0-1.177 1.168-1.9 3.319-1.9 2.331 0 4.059.632 4.51 2.805h4.888c-.266-4.092-3.184-6.793-9.101-6.793-5.114 0-8.703 2.128-8.703 6.252 0 2.85 1.975 4.706 6.237 5.61l4.663 1.087c1.84.364 2.331.864 2.331 1.633 0 1.223-1.389 1.991-3.635 1.991-2.823 0-4.437-.632-5.064-2.805h-4.916c.717 4.083 3.721 6.797 9.823 6.797zm-11.243-.496h-5.29c-3.319 0-5.159-2.082-5.159-4.71V11.935h-3.721V7.498h3.739v-5.57h4.915v5.57h5.516v4.437h-5.516v9.143c0 1.042.717 1.542 1.84 1.542h3.676v4.437zm-21.196-19.55V9.27a9.497 9.497 0 00-6.192-2.274 10.12 10.12 0 00-3.967.72 10.19 10.19 0 00-3.381 2.213c-.97.957-1.74 2.1-2.266 3.361a10.352 10.352 0 000 7.968 10.28 10.28 0 002.266 3.361 10.19 10.19 0 003.381 2.214 10.12 10.12 0 003.967.719 9.467 9.467 0 006.192-2.273v1.768h4.902V7.498l-4.902.009zm-5.786 15.754a5.893 5.893 0 01-3.313-.975 5.968 5.968 0 01-2.214-2.67 6.03 6.03 0 01-.365-3.46 6 6 0 011.609-3.079 5.917 5.917 0 013.036-1.654 5.884 5.884 0 013.436.33 5.944 5.944 0 012.672 2.204 6.014 6.014 0 011.002 3.33 5.957 5.957 0 01-1.701 4.218 5.859 5.859 0 01-1.912 1.294c-.716.3-1.484.454-2.259.453l.009.009z" fill="#5FB709"/></g><defs><clipPath id="clip0_2_520"><path fill="#fff" d="M0 0h166.409v27.735H0z"/></clipPath></defs></svg>