<svg width="120" height="21" fill="none" xmlns="http://www.w3.org/2000/svg"><path d="M19.677 20L12.7 1.893H7.868L.864 20h4.398l1.14-3.068h7.764L15.28 20h4.398zm-6.57-6.461H7.462l2.823-7.791 2.824 7.791zm19.346-1.629V9.766h-4.86V4.472h-2.362v5.294h-4.886v2.144h4.886v5.511h2.362v-5.51h4.86zm16.135 8.253c3.366 0 6.461-1.9 6.461-5.43 0-3.61-2.742-4.479-5.972-5.755-2.416-.923-4.154-1.601-4.127-3.447.027-1.846 1.629-2.824 3.448-2.824 1.439 0 3.095.679 4.642 1.955l1.439-1.873C52.66 1.323 50.542.535 48.398.535c-3.312 0-5.891 2.227-5.891 5.104 0 3.394 2.905 4.615 5.755 5.674 2.58.977 4.317 1.547 4.317 3.692 0 1.873-1.602 2.959-3.964 2.959-1.873 0-3.936-.869-5.32-2.606l-1.521 1.819c1.927 2.063 4.398 2.986 6.814 2.986zm13.576 0c1.574 0 2.47-.38 3.203-.814l-.57-1.928c-.652.353-1.466.679-2.253.679-1.25 0-1.602-.76-1.602-2.362V8.68h4.37v-1.9h-4.37V2.028l-2.199.244v4.506h-1.71v1.9h1.71v7.385c0 2.66 1.086 4.099 3.42 4.099zm10.759 0c1.737 0 3.366-.869 4.37-2.443h.028V20h2.199V6.78h-2.2v6.406c0 3.15-1.818 4.968-3.936 4.968-2.09 0-3.23-1.14-3.23-4.126V6.779h-2.2v7.873c0 3.774 1.928 5.51 4.969 5.51zm16.194 0c2.144 0 3.828-1.005 4.778-2.606h.027V20h2.117V.02H93.84v9.12h-.027c-1.003-1.6-2.715-2.524-4.723-2.524-3.72 0-6.461 2.96-6.461 6.869 0 4.018 2.823 6.678 6.488 6.678zm.298-2.009c-2.687 0-4.533-2.009-4.533-4.67 0-2.931 2.036-4.859 4.56-4.859 2.66 0 4.48 2.145 4.48 4.86 0 2.796-2.01 4.669-4.507 4.669zm12.007-13.79c.896 0 1.602-.707 1.602-1.575 0-.869-.706-1.575-1.602-1.575-.896 0-1.602.706-1.602 1.575 0 .868.706 1.574 1.602 1.574zm-1.113 2.415V20h2.199V6.78h-2.199zM112.8 20.163c3.909 0 6.814-2.742 6.814-6.76s-2.905-6.787-6.814-6.787c-4.099 0-6.841 2.987-6.841 6.787s2.742 6.76 6.841 6.76zm0-2.009c-2.742 0-4.588-2.117-4.588-4.75 0-2.634 1.819-4.779 4.588-4.779 2.552 0 4.561 1.955 4.561 4.778 0 2.824-2.036 4.751-4.561 4.751z" fill="#000"/></svg>