<svg viewBox="0 0 86 100" xmlns="http://www.w3.org/2000/svg" xmlns:xlink="http://www.w3.org/1999/xlink"><style>:root&gt;svg{display:none}:root&gt;svg:target{display:block}</style><svg fill="none" viewBox="0 0 36 36" id="icon-facebook" xmlns="http://www.w3.org/2000/svg"><path d="M18 36c9.941 0 18-8.059 18-18S27.941 0 18 0 0 8.059 0 18s8.059 18 18 18z" fill="#3B5998"/><path d="M22.525 18.705h-3.212v11.767h-4.866V18.704h-2.314v-4.136h2.314v-2.676c0-1.913.91-4.91 4.91-4.91l3.604.015v4.014h-2.615c-.43 0-1.032.214-1.032 1.127v2.434h3.636l-.425 4.132z" fill="#fff"/></svg><svg fill="none" viewBox="0 0 36 36" id="icon-linkedin" xmlns="http://www.w3.org/2000/svg"><g clip-path="url(#bclip0_2_636)"><path d="M18 36c9.941 0 18-8.06 18-18 0-9.941-8.059-18-18-18S0 8.059 0 18c0 9.94 8.059 18 18 18z" fill="#007AB9"/><path d="M28.755 19.448v7.421h-4.303v-6.923c0-1.739-.62-2.926-2.179-2.926-1.189 0-1.895.8-2.207 1.573-.113.277-.142.66-.142 1.049v7.227H15.62s.058-11.726 0-12.94h4.303v1.833c-.008.015-.02.029-.028.043h.028v-.043c.572-.88 1.592-2.137 3.878-2.137 2.83 0 4.953 1.85 4.953 5.823zM11.12 7.691c-1.472 0-2.435.966-2.435 2.236 0 1.242.935 2.236 2.378 2.236h.028c1.501 0 2.434-.994 2.434-2.236-.028-1.27-.933-2.236-2.405-2.236zM8.94 26.869h4.302V13.93H8.941v12.94z" fill="#F1F2F2"/></g><defs><clipPath id="bclip0_2_636"><path fill="#fff" d="M0 0h36v36H0z"/></clipPath></defs></svg><svg fill="none" viewBox="0 0 86 100" id="icon-play" xmlns="http://www.w3.org/2000/svg"><path d="M0 0l85.714 50L0 100V0z" fill="#fff"/></svg><svg fill="none" viewBox="0 0 36 36" id="icon-twitter" xmlns="http://www.w3.org/2000/svg"><g clip-path="url(#dclip0_2_631)"><path d="M18 36c9.941 0 18-8.06 18-18 0-9.941-8.059-18-18-18C8.06 0 0 8.059 0 18c0 9.94 8.06 18 18 18z" fill="#55ACEE"/><path d="M29.026 12.936a8.582 8.582 0 01-2.472.677 4.314 4.314 0 001.893-2.38 8.617 8.617 0 01-2.733 1.044 4.303 4.303 0 00-7.332 3.925 12.213 12.213 0 01-8.868-4.497 4.302 4.302 0 001.331 5.744 4.272 4.272 0 01-1.948-.538v.055a4.305 4.305 0 003.451 4.218 4.288 4.288 0 01-1.943.075 4.307 4.307 0 004.02 2.987 8.633 8.633 0 01-6.37 1.782 12.17 12.17 0 006.594 1.933c7.914 0 12.242-6.556 12.242-12.242 0-.186-.004-.372-.013-.556a8.723 8.723 0 002.148-2.227z" fill="#F1F2F2"/></g><defs><clipPath id="dclip0_2_631"><path fill="#fff" d="M0 0h36v36H0z"/></clipPath></defs></svg></svg>