<svg width="36" height="36" fill="none" xmlns="http://www.w3.org/2000/svg"><g clip-path="url(#clip0_2_636)"><path d="M18 36c9.941 0 18-8.06 18-18 0-9.941-8.059-18-18-18S0 8.059 0 18c0 9.94 8.059 18 18 18z" fill="#007AB9"/><path d="M28.755 19.448v7.421h-4.303v-6.923c0-1.739-.62-2.926-2.179-2.926-1.189 0-1.895.8-2.207 1.573-.113.277-.142.66-.142 1.049v7.227H15.62s.058-11.726 0-12.94h4.303v1.833c-.008.015-.02.029-.028.043h.028v-.043c.572-.88 1.592-2.137 3.878-2.137 2.83 0 4.953 1.85 4.953 5.823zM11.12 7.691c-1.472 0-2.435.966-2.435 2.236 0 1.242.935 2.236 2.378 2.236h.028c1.501 0 2.434-.994 2.434-2.236-.028-1.27-.933-2.236-2.405-2.236zM8.94 26.869h4.302V13.93H8.941v12.94z" fill="#F1F2F2"/></g><defs><clipPath id="clip0_2_636"><path fill="#fff" d="M0 0h36v36H0z"/></clipPath></defs></svg>