<svg width="36" height="36" fill="none" xmlns="http://www.w3.org/2000/svg"><g clip-path="url(#clip0_2_631)"><path d="M18 36c9.941 0 18-8.06 18-18 0-9.941-8.059-18-18-18C8.06 0 0 8.059 0 18c0 9.94 8.06 18 18 18z" fill="#55ACEE"/><path d="M29.026 12.936a8.582 8.582 0 01-2.472.677 4.314 4.314 0 001.893-2.38 8.617 8.617 0 01-2.733 1.044 4.303 4.303 0 00-7.332 3.925 12.213 12.213 0 01-8.868-4.497 4.302 4.302 0 001.331 5.744 4.272 4.272 0 01-1.948-.538v.055a4.305 4.305 0 003.451 4.218 4.288 4.288 0 01-1.943.075 4.307 4.307 0 004.02 2.987 8.633 8.633 0 01-6.37 1.782 12.17 12.17 0 006.594 1.933c7.914 0 12.242-6.556 12.242-12.242 0-.186-.004-.372-.013-.556a8.723 8.723 0 002.148-2.227z" fill="#F1F2F2"/></g><defs><clipPath id="clip0_2_631"><path fill="#fff" d="M0 0h36v36H0z"/></clipPath></defs></svg>