<svg width="74" height="74" fill="none" xmlns="http://www.w3.org/2000/svg"><path d="M36.998 41.008c-.4 0-.801-.092-1.171-.308L8.6 24.944a2.318 2.318 0 01-.833-3.176c.647-1.11 2.035-1.48 3.176-.833l26.054 15.078 25.9-14.985c1.11-.647 2.528-.247 3.176.833.647 1.11.247 2.528-.832 3.175L38.2 40.7c-.401.185-.802.308-1.203.308z" fill="#2639ED"/><path d="M37 68.943a2.33 2.33 0 01-2.313-2.312V38.665A2.33 2.33 0 0137 36.352a2.33 2.33 0 012.313 2.313v27.966A2.33 2.33 0 0137 68.943z" fill="#2639ED"/><path d="M36.997 70.146c-2.806 0-5.489-.647-7.524-1.788l-16.465-9.126c-4.47-2.467-7.986-8.418-7.986-13.536V28.244c0-5.118 3.515-11.038 7.986-13.536l16.465-9.126c4.194-2.344 10.792-2.344 15.016 0l16.465 9.126c4.47 2.467 7.986 8.418 7.986 13.536v11.285a2.33 2.33 0 01-2.313 2.312 2.33 2.33 0 01-2.312-2.312V28.244c0-3.392-2.62-7.831-5.58-9.466L42.268 9.652c-2.806-1.573-7.708-1.573-10.514 0L15.29 18.778c-2.99 1.665-5.58 6.074-5.58 9.466v17.452c0 3.391 2.62 7.832 5.58 9.466l16.465 9.126c2.713 1.51 7.832 1.51 10.514 0a2.321 2.321 0 013.145.895 2.32 2.32 0 01-.894 3.144c-2.035 1.172-4.718 1.82-7.523 1.82z" fill="#2639ED"/><path d="M59.2 68.296c-6.722 0-12.18-5.458-12.18-12.18 0-6.721 5.458-12.178 12.18-12.178 6.722 0 12.18 5.457 12.18 12.179 0 6.721-5.458 12.179-12.18 12.179zm0-19.734c-4.163 0-7.554 3.392-7.554 7.555 0 4.162 3.392 7.554 7.554 7.554 4.162 0 7.554-3.392 7.554-7.554 0-4.163-3.392-7.554-7.554-7.554z" fill="#2639ED"/><path d="M70.915 70.146a2.287 2.287 0 01-1.634-.678l-3.083-3.084a2.327 2.327 0 010-3.269 2.326 2.326 0 013.268 0l3.083 3.084a2.327 2.327 0 010 3.269 2.287 2.287 0 01-1.634.678z" fill="#2639ED"/></svg>