<svg width="74" height="74" fill="none" xmlns="http://www.w3.org/2000/svg"><path d="M31.173 55.962H19.488a2.33 2.33 0 01-2.313-2.313V37.862c0-3.206 2.62-5.827 5.828-5.827h8.17a2.33 2.33 0 012.313 2.312v19.27c0 1.296-1.048 2.345-2.313 2.345zM21.8 51.337h7.06V36.69h-5.857c-.648 0-1.203.524-1.203 1.202v13.444z" fill="#00DA71"/><path d="M42.826 55.962H31.14a2.33 2.33 0 01-2.312-2.313V23.864c0-3.207 2.62-5.828 5.827-5.828h4.687c3.207 0 5.828 2.621 5.828 5.828v29.785c-.031 1.264-1.049 2.313-2.344 2.313zm-9.342-4.625h7.06V23.864c0-.648-.524-1.203-1.202-1.203h-4.687c-.647 0-1.202.524-1.202 1.203v27.473h.03z" fill="#00DA71"/><path d="M54.515 55.962H42.83a2.33 2.33 0 01-2.312-2.313V39.62a2.33 2.33 0 012.312-2.312H51c3.207 0 5.828 2.621 5.828 5.828V53.65a2.31 2.31 0 01-2.313 2.313zm-9.373-4.625h7.06v-8.202c0-.648-.523-1.203-1.202-1.203h-5.858v9.405z" fill="#00DA71"/><path d="M46.25 70.146h-18.5c-16.742 0-23.896-7.154-23.896-23.896v-18.5c0-16.742 7.154-23.896 23.896-23.896h18.5c16.742 0 23.896 7.154 23.896 23.896v18.5c0 16.742-7.154 23.896-23.896 23.896zM27.75 8.479c-14.214 0-19.27 5.057-19.27 19.271v18.5c0 14.214 5.056 19.27 19.27 19.27h18.5c14.214 0 19.27-5.056 19.27-19.27v-18.5c0-14.214-5.056-19.27-19.27-19.27h-18.5z" fill="#00DA71"/></svg>