<svg width="74" height="74" fill="none" xmlns="http://www.w3.org/2000/svg"><path d="M54.698 70.146H19.302c-7.678 0-13.906-6.229-13.906-13.906V35.49c0-7.678 6.228-13.907 13.906-13.907h35.396c7.678 0 13.906 6.229 13.906 13.906v4.44a2.33 2.33 0 01-2.312 2.313h-6.229c-1.079 0-2.066.4-2.775 1.14l-.03.031c-.864.833-1.265 1.974-1.172 3.145.185 2.035 2.127 3.67 4.347 3.67h5.859a2.33 2.33 0 012.312 2.312v3.67c0 7.707-6.228 13.936-13.906 13.936zM19.302 26.208c-5.119 0-9.281 4.163-9.281 9.281V56.24c0 5.118 4.162 9.28 9.28 9.28h35.397c5.119 0 9.281-4.162 9.281-9.28v-1.357h-3.546c-4.655 0-8.602-3.453-8.972-7.893-.247-2.528.678-5.026 2.528-6.845 1.604-1.634 3.762-2.528 6.074-2.528h3.916v-2.128c0-5.118-4.162-9.28-9.28-9.28H19.301z" fill="#F90"/><path d="M7.708 40.577a2.33 2.33 0 01-2.312-2.313v-14.09c0-4.595 2.898-8.757 7.184-10.391l24.482-9.25c2.528-.956 5.334-.617 7.523.925a8.152 8.152 0 013.515 6.721v11.717a2.33 2.33 0 01-2.313 2.312 2.33 2.33 0 01-2.312-2.312V12.179a3.52 3.52 0 00-1.542-2.929c-.986-.678-2.158-.832-3.268-.4L14.183 18.1c-2.497.955-4.193 3.391-4.193 6.073v14.091c.03 1.295-1.017 2.313-2.282 2.313zm52.727 14.307c-4.656 0-8.603-3.453-8.973-7.893-.246-2.56.679-5.057 2.529-6.876 1.572-1.604 3.73-2.498 6.043-2.498h6.413c3.053.093 5.396 2.498 5.396 5.458v6.351a5.457 5.457 0 01-5.303 5.458h-6.105zm5.95-12.642h-6.32c-1.08 0-2.066.401-2.775 1.141-.894.863-1.326 2.035-1.203 3.207.185 2.035 2.128 3.669 4.348 3.669h6.043c.401 0 .771-.37.771-.833v-6.351c0-.463-.37-.802-.863-.833z" fill="#F90"/><path d="M43.167 39.313H21.583A2.33 2.33 0 0119.271 37a2.33 2.33 0 012.312-2.313h21.584A2.33 2.33 0 0145.479 37a2.33 2.33 0 01-2.312 2.313z" fill="#F90"/></svg>